# xmcd
#
# Track frame offsets:
#	150
#	15300
#	28125
#	43800
#	59550
#	70350
#	84150
#	101850
#	119025
#	133425
#
# Disc length: 2045 seconds
#
# Revision: 0
# Processed by: cddbd v1.5.2PL0 Copyright (c) Steve Scherf et al.
# Submitted via: audiograbber 1.83.01
#
DISCID=9407fb0a
DTITLE=John Hammond And The Nighthawks - Hot Tracks
DYEAR=1978
DGENRE=Blues
TTITLE0=Mama Keep Your Big Mouth Shut
TTITLE1=Who's Been Talkin'
TTITLE2=Sugar Mama
TTITLE3=Howling For My Darling
TTITLE4=You Better Watch Yourself
TTITLE5=Pretty Thing
TTITLE6=Caress Me Baby
TTITLE7=Nadine
TTITLE8=Last Night
TTITLE9=Sweet Home Chicago
EXTD=ID3G: 0
EXTT0=
EXTT1=
EXTT2=
EXTT3=
EXTT4=
EXTT5=
EXTT6=
EXTT7=
EXTT8=
EXTT9=
PLAYORDER=
